<?xml version="1.0" encoding="utf-8"?>
<!-- Svg Vector Icons : http://www.onlinewebfonts.com/icon -->
<!DOCTYPE svg PUBLIC "-//W3C//DTD SVG 1.1//EN" "http://www.w3.org/Graphics/SVG/1.1/DTD/svg11.dtd">
<svg fill="#03a9f4"  version="1.1" xmlns="http://www.w3.org/2000/svg" xmlns:xlink="http://www.w3.org/1999/xlink" x="0px" y="0px" viewBox="0 0 1000 1000" enable-background="new 0 0 1000 1000" xml:space="preserve">
<metadata> Svg Vector Icons : http://www.onlinewebfonts.com/icon </metadata>
<g><path d="M945.4,210.5c-24.6,0-44.6,19.9-44.6,44.6v311.8H162.1l57.6-57.6c17.4-17.4,17.4-45.6,0-63c-17.4-17.4-45.6-17.4-63,0L23,579.9c-0.1,0.1-13,9.4-13,31.5c0,22.1,13,31.4,13,31.5c0,0,0,0,0,0l133.6,133.6c8.7,8.7,20.1,13.1,31.5,13.1c11.4,0,22.8-4.4,31.5-13c17.4-17.4,17.4-45.6,0-63l-57.6-57.6h783.4c24.6,0,44.6-19.9,44.6-44.6V255C990,230.4,970.1,210.5,945.4,210.5z"/></g>
</svg>