<?xml version="1.0" encoding="utf-8"?>
<!-- Generator: Adobe Illustrator 24.1.1, SVG Export Plug-In . SVG Version: 6.00 Build 0)  -->
<svg version="1.1" id="Layer_1" xmlns="http://www.w3.org/2000/svg" xmlns:xlink="http://www.w3.org/1999/xlink" x="0px" y="0px"
	 viewBox="0 0 512 512" style="enable-background:new 0 0 512 512;" xml:space="preserve">
<style type="text/css">
	.st0{fill:#c01919;}
</style>
<g>
	<path class="st0" d="M426.7,0H85.3C38.2,0,0,38.2,0,85.3v341.3C0,473.8,38.2,512,85.3,512h341.3c47.1,0,85.3-38.2,85.3-85.3V85.3
		C512,38.2,473.8,0,426.7,0z M455.1,426.7c0,15.7-12.7,28.4-28.4,28.4H85.3c-15.7,0-28.4-12.7-28.4-28.4V85.3
		c0-15.7,12.7-28.4,28.4-28.4h341.3c15.7,0,28.4,12.7,28.4,28.4V426.7z"/>
	<path class="st0" d="M333.1,178.9c-11.1-11.2-29.1-11.2-40.2-0.2l-0.2,0.2l-36.7,37l-36.7-37c-11.2-11.2-29.2-11.2-40.4,0
		c-11.2,11.2-11.2,29.2,0,40.4l37,36.7l-37,36.7c-11.2,11.1-11.2,29.1-0.2,40.2l0.2,0.2c11.1,11.2,29.1,11.2,40.2,0.2l0.2-0.2
		l36.7-37l36.7,37c11.1,11.2,29.1,11.2,40.2,0.2l0.2-0.2c11.2-11.1,11.2-29.1,0.2-40.2l-0.2-0.2l-37-36.7l37-36.7
		c11.2-11.1,11.2-29.1,0.2-40.2L333.1,178.9z"/>
</g>
</svg>
