<?xml version="1.0" encoding="utf-8"?>
<!-- Generator: Adobe Illustrator 24.1.1, SVG Export Plug-In . SVG Version: 6.00 Build 0)  -->
<svg version="1.1" id="Layer_1" xmlns="http://www.w3.org/2000/svg" xmlns:xlink="http://www.w3.org/1999/xlink" x="0px" y="0px"
	 viewBox="0 0 512 512" style="enable-background:new 0 0 512 512;" xml:space="preserve">
<style type="text/css">
	.st0{fill:#e20000;}
</style>
<g>
	<path class="st0" d="M46.5,34.9c-6.4,0-11.6,5.2-11.6,11.6v418.9c0,6.4,5.2,11.6,11.6,11.6h418.9c6.4,0,11.6-5.2,11.6-11.6V46.5
		c0-6.4-5.2-11.6-11.6-11.6H46.5z M465.5,0C491.2,0,512,20.8,512,46.5v418.9c0,25.7-20.8,46.5-46.5,46.5H46.5
		C20.8,512,0,491.2,0,465.5V46.5C0,20.8,20.8,0,46.5,0H465.5z M312.5,174.5l-56.2,56.2l-56.2-56.2c-6.1-6.1-15.7-6.7-22.5-1.8
		l-2.2,1.8c-6.8,6.8-6.8,17.9,0,24.7l56.2,56.1l-56.2,56.1c-6.8,6.8-6.8,17.9,0,24.7c6.8,6.8,17.9,6.8,24.7,0l56.2-56.2l56.2,56.2
		c6.1,6.1,15.7,6.7,22.5,1.8l2.2-1.8c6.8-6.8,6.8-17.9,0-24.7L281,255.4l56.2-56.1c6.8-6.8,6.8-17.9,0-24.7
		C330.4,167.7,319.3,167.7,312.5,174.5z"/>
</g>
</svg>
